<?xml version="1.0" encoding="UTF-8"?>
<svg version="1.1" xmlns="http://www.w3.org/2000/svg" width="2560" height="1440">
<path d="M0,0 L5,1 L53,25 L72,35 L152,75 L171,85 L251,125 L270,135 L322,161 L316,169 L303,182 L296,190 L289,197 L282,205 L275,212 L268,220 L261,227 L254,235 L246,243 L239,251 L232,258 L225,266 L218,273 L211,281 L204,288 L197,296 L189,304 L182,312 L175,319 L168,327 L161,334 L154,342 L147,349 L140,357 L133,364 L126,372 L118,380 L111,388 L104,395 L97,403 L90,410 L83,418 L77,424 L72,423 L38,406 L19,396 L-61,356 L-80,346 L-160,306 L-179,296 L-245,263 L-239,255 L-227,243 L-220,235 L-212,227 L-205,219 L-198,212 L-191,204 L-184,197 L-177,189 L-170,182 L-163,174 L-155,166 L-148,158 L-141,151 L-134,143 L-127,136 L-120,128 L-113,121 L-106,113 L-98,105 L-91,97 L-84,90 L-77,82 L-70,75 L-63,67 L-56,60 L-49,52 L-42,45 L-35,37 L-27,29 L-20,21 L-13,14 L-6,6 Z " fill="currentColor" transform="translate(512,205)"/>
<path d="M0,0 L6,2 L53,26 L123,61 L142,71 L220,110 L239,120 L319,160 L322,163 L311,174 L304,182 L296,190 L289,198 L282,205 L275,213 L268,220 L261,228 L254,235 L247,243 L239,251 L232,259 L225,266 L218,274 L211,281 L204,289 L197,296 L190,304 L182,312 L175,320 L168,327 L161,335 L154,342 L147,350 L140,357 L133,365 L125,373 L118,381 L111,388 L104,396 L97,403 L90,411 L83,418 L77,425 L71,423 L7,391 L-12,381 L-92,341 L-111,331 L-189,292 L-208,282 L-244,264 L-244,261 L-234,251 L-227,243 L-219,235 L-212,227 L-205,220 L-198,212 L-191,205 L-184,197 L-177,190 L-170,182 L-163,175 L-156,167 L-148,159 L-141,151 L-134,144 L-127,136 L-120,129 L-113,121 L-106,114 L-99,106 L-91,98 L-84,90 L-77,83 L-70,75 L-63,68 L-56,60 L-49,53 L-42,45 L-34,37 L-27,29 L-20,22 L-13,14 L-6,7 Z " fill="currentColor" transform="translate(849,369)"/>
<path d="M0,0 L6,2 L41,20 L115,57 L134,67 L214,107 L233,117 L313,157 L322,162 L316,169 L304,182 L289,198 L275,213 L261,228 L246,244 L232,259 L218,274 L204,289 L189,305 L175,320 L161,335 L147,350 L133,365 L118,381 L104,396 L90,411 L77,425 L71,423 L1,388 L-18,378 L-98,338 L-117,328 L-197,288 L-216,278 L-244,264 L-243,260 L-231,248 L-224,240 L-217,233 L-210,225 L-202,217 L-195,209 L-188,202 L-181,194 L-174,187 L-167,179 L-160,172 L-153,164 L-145,156 L-138,148 L-131,141 L-124,133 L-117,126 L-110,118 L-103,111 L-96,103 L-88,95 L-81,87 L-74,80 L-67,72 L-60,65 L-53,57 L-46,50 L-39,42 L-32,35 L-25,27 L-17,19 L-10,11 L-3,4 Z " fill="currentColor" transform="translate(1340,373)"/>
<path d="M0,0 L5,1 L52,25 L122,60 L141,70 L221,110 L240,120 L320,160 L322,163 L306,180 L292,195 L277,211 L263,226 L249,241 L235,256 L220,272 L206,287 L192,302 L178,317 L163,333 L149,348 L135,363 L121,378 L106,394 L92,409 L78,424 L76,425 L8,391 L-11,381 L-91,341 L-110,331 L-190,291 L-209,281 L-243,264 L-243,261 L-236,253 L-228,245 L-221,237 L-214,230 L-207,222 L-200,215 L-193,207 L-186,200 L-179,192 L-171,184 L-164,176 L-157,169 L-150,161 L-143,154 L-136,146 L-129,139 L-122,131 L-115,124 L-108,116 L-100,108 L-93,100 L-86,93 L-79,85 L-72,78 L-65,70 L-58,63 L-51,55 L-43,47 L-36,39 L-29,32 L-22,24 L-15,17 L-8,9 L-1,2 Z " fill="currentColor" transform="translate(253,475)"/>
<path d="M0,0 L16,8 L106,53 L125,63 L205,103 L224,113 L304,153 L321,162 L319,166 L311,174 L304,182 L296,190 L289,198 L282,205 L275,213 L268,220 L261,228 L254,235 L247,243 L240,250 L233,258 L225,266 L218,274 L211,281 L204,289 L197,296 L190,304 L183,311 L176,319 L168,327 L161,335 L154,342 L147,350 L140,357 L133,365 L126,372 L119,380 L111,388 L104,396 L97,403 L90,411 L83,418 L77,425 L72,424 L-8,384 L-27,374 L-107,334 L-126,324 L-206,284 L-225,274 L-245,264 L-243,260 L-234,251 L-227,243 L-219,235 L-212,227 L-205,220 L-198,212 L-191,205 L-184,197 L-177,190 L-170,182 L-162,174 L-155,166 L-148,159 L-141,151 L-134,144 L-127,136 L-120,129 L-113,121 L-105,113 L-98,105 L-91,98 L-84,90 L-77,83 L-70,75 L-63,68 L-56,60 L-48,52 L-41,44 L-34,37 L-27,29 L-20,22 L-13,14 L-6,7 Z " fill="currentColor" transform="translate(2226,476)"/>
<path d="M0,0 L19,9 L65,32 L84,42 L164,82 L183,92 L261,131 L280,141 L320,161 L320,164 L309,176 L294,192 L280,207 L266,222 L251,238 L237,253 L223,268 L209,283 L194,299 L180,314 L166,329 L152,344 L137,360 L123,375 L109,390 L95,405 L80,421 L76,425 L70,423 L48,412 L29,402 L-51,362 L-70,352 L-148,313 L-167,303 L-245,264 L-243,260 L-231,247 L-216,231 L-202,216 L-187,200 L-173,185 L-159,170 L-145,155 L-131,140 L-116,124 L-102,109 L-88,94 L-74,79 L-59,63 L-45,48 L-31,33 L-17,18 L-2,2 Z " fill="currentColor" transform="translate(1638,582)"/>
<path d="M0,0 L6,2 L68,33 L87,43 L167,83 L186,93 L266,133 L285,143 L321,161 L319,166 L307,178 L300,186 L292,194 L285,202 L278,209 L271,217 L264,224 L257,232 L250,239 L243,247 L235,255 L228,263 L221,270 L214,278 L207,285 L200,293 L193,300 L186,308 L178,316 L171,324 L164,331 L157,339 L150,346 L143,354 L136,361 L129,369 L121,377 L114,385 L107,392 L100,400 L93,407 L86,415 L79,422 L77,425 L71,423 L24,399 L-46,364 L-65,354 L-145,314 L-164,304 L-244,264 L-244,261 L-228,244 L-213,228 L-199,213 L-185,198 L-171,183 L-157,168 L-142,152 L-128,137 L-114,122 L-100,107 L-85,91 L-71,76 L-57,61 L-43,46 L-28,30 L-14,15 Z " fill="currentColor" transform="translate(590,643)"/>
<path d="M0,0 L6,2 L62,30 L81,40 L161,80 L180,90 L260,130 L279,140 L321,161 L321,164 L309,176 L302,184 L295,191 L288,199 L281,206 L274,214 L267,221 L260,229 L252,237 L245,245 L238,252 L231,260 L224,267 L217,275 L210,282 L203,290 L195,298 L188,306 L181,313 L174,321 L167,328 L160,336 L153,343 L146,351 L138,359 L131,367 L124,374 L117,382 L110,389 L103,397 L96,404 L89,412 L82,419 L77,425 L71,423 L45,410 L26,400 L-52,361 L-71,351 L-151,311 L-170,301 L-244,264 L-244,261 L-235,252 L-228,244 L-221,237 L-214,229 L-206,221 L-199,213 L-192,206 L-185,198 L-178,191 L-171,183 L-164,176 L-157,168 L-149,160 L-142,152 L-135,145 L-128,137 L-121,130 L-114,122 L-107,115 L-100,107 L-93,100 L-86,92 L-78,84 L-71,76 L-64,69 L-57,61 L-50,54 L-43,46 L-36,39 L-29,31 L-21,23 L-14,15 L-7,8 Z " fill="currentColor" transform="translate(1081,647)"/>
<path d="M0,0 L19,9 L38,19 L118,59 L137,69 L217,109 L236,119 L316,159 L321,163 L312,173 L296,190 L282,205 L267,221 L253,236 L239,251 L225,266 L211,281 L196,297 L182,312 L168,327 L154,342 L139,358 L125,373 L111,388 L97,403 L82,419 L77,425 L72,424 L4,390 L-15,380 L-95,340 L-114,330 L-194,290 L-213,280 L-245,264 L-243,260 L-228,244 L-214,229 L-200,214 L-186,199 L-171,183 L-157,168 L-143,153 L-129,138 L-114,122 L-100,107 L-86,92 L-72,77 L-57,61 L-43,46 L-29,31 L-15,16 Z " fill="currentColor" transform="translate(1973,748)"/>
<path d="M0,0 L5,1 L83,40 L102,50 L182,90 L201,100 L279,139 L298,149 L322,161 L316,169 L304,181 L297,189 L290,196 L283,204 L275,212 L268,220 L261,227 L254,235 L247,242 L240,250 L233,257 L226,265 L219,272 L212,280 L204,288 L197,296 L190,303 L183,311 L176,318 L169,326 L162,333 L155,341 L147,349 L140,357 L133,364 L126,372 L119,379 L112,387 L105,394 L98,402 L90,410 L83,418 L77,424 L72,423 L43,408 L-33,370 L-52,360 L-130,321 L-149,311 L-229,271 L-244,263 L-242,259 L-231,247 L-216,231 L-202,216 L-188,201 L-173,185 L-159,170 L-145,155 L-131,140 L-116,124 L-102,109 L-88,94 L-74,79 L-59,63 L-45,48 L-31,33 L-17,18 L-3,3 Z " fill="currentColor" transform="translate(1381,856)"/>
</svg>
